<?xml version="1.0" encoding="UTF-8" standalone="no"?>
<!-- Created with Inkscape (http://www.inkscape.org/) -->

<svg
   width="800mm"
   height="200mm"
   viewBox="0 0 800 200"
   version="1.1"
   id="svg1"
   inkscape:version="1.4.2 (f4327f4, 2025-05-13)"
   sodipodi:docname="iqamah-logo2.svg"
   xmlns:inkscape="http://www.inkscape.org/namespaces/inkscape"
   xmlns:sodipodi="http://sodipodi.sourceforge.net/DTD/sodipodi-0.dtd"
   xmlns="http://www.w3.org/2000/svg"
   xmlns:svg="http://www.w3.org/2000/svg">
  <sodipodi:namedview
     id="namedview1"
     pagecolor="#ffffff"
     bordercolor="#000000"
     borderopacity="0.25"
     inkscape:showpageshadow="2"
     inkscape:pageopacity="0.0"
     inkscape:pagecheckerboard="0"
     inkscape:deskcolor="#d1d1d1"
     inkscape:document-units="mm"
     inkscape:zoom="0.36756309"
     inkscape:cx="1535.7908"
     inkscape:cy="458.4247"
     inkscape:window-width="2560"
     inkscape:window-height="1369"
     inkscape:window-x="-8"
     inkscape:window-y="-8"
     inkscape:window-maximized="1"
     inkscape:current-layer="layer1" />
  <defs
     id="defs1" />
  <g
     inkscape:label="Layer 1"
     inkscape:groupmode="layer"
     id="layer1">
    <g
       id="g1"
       transform="translate(9.0590667,2.7770617)">
      <path
         style="fill:#d4af37;fill-opacity:1;stroke-width:0.237879"
         d="m 71.936973,177.68236 c -1.77502,-0.63429 -3.737791,-2.36679 -4.134811,-3.6497 -0.581866,-1.88022 -0.711345,-11.08258 -0.716873,-50.9522 l -0.0055,-42.048857 1.489751,-2.542769 C 71.796431,72.981078 76.429535,67.46261 85.851717,57.90412 96.759986,46.838045 108.91848,37.085014 122.28703,28.677266 c 8.50173,-5.346931 17.53538,-10.051836 22.06008,-11.489332 4.22921,-1.343635 6.94438,-0.753911 13.88142,3.014948 9.63582,5.235106 18.6504,11.040478 29.05845,18.713563 4.90077,3.612989 7.83521,6.169912 15.40209,13.420667 9.98717,9.569907 15.15157,14.997715 19.50146,20.496079 2.87735,3.636996 4.18561,5.906506 4.86969,8.447606 1.39129,5.168285 1.52245,10.573498 1.33016,54.817783 l -0.16488,37.91464 -1.5458,1.07629 c -2.43221,1.69349 -3.68512,2.01788 -8.2687,2.14094 -2.14966,0.0577 -7.59099,-0.0617 -12.09184,-0.26542 -14.13889,-0.63987 -36.4518,-0.89847 -64.61198,-0.74882 -28.0744,0.14915 -37.11245,0.33575 -52.886547,1.09165 -14.941863,0.71602 -15.87005,0.7366 -16.883374,0.3745 z m 16.211611,-9.80506 c 3.056542,-0.0851 5.568047,-0.16464 5.581101,-0.17727 0.0131,-0.0119 0.216005,-17.01384 0.45101,-37.78081 l 0.427267,-37.758095 1.401016,-2.432289 c 3.723319,-6.463939 8.548382,-12.142169 17.031352,-20.042805 7.80926,-7.273162 14.60995,-12.52564 22.80385,-17.61245 10.67896,-6.62955 12.68064,-6.670037 22.59587,-0.457092 10.34567,6.482682 21.78291,15.487092 28.65625,22.560743 6.33423,6.518831 9.24106,10.173934 11.68843,14.697256 l 1.52757,2.823343 0.16487,37.595319 c 0.0908,20.67743 0.20562,37.62937 0.25515,37.67097 0.15392,0.12914 13.64937,0.83603 15.88979,0.83243 l 2.11986,-0.002 0.20085,-1.33196 c 0.32365,-2.14695 0.20157,-68.450428 -0.13557,-73.585213 -0.45252,-6.893997 -0.94805,-9.480247 -2.35619,-12.297109 -1.02558,-2.051622 -2.15274,-3.452488 -7.73488,-9.613264 -13.367,-14.752554 -27.2116,-26.105557 -47.64981,-39.074309 -12.51886,-7.943658 -13.57457,-8.07491 -22.82994,-2.83835 -15.70301,8.884174 -28.05884,18.146182 -42.454184,31.823547 -11.207996,10.648974 -16.432784,16.806771 -18.622808,21.948276 -0.489457,1.149098 -0.651616,2.081928 -0.834732,4.801941 -0.124991,1.856679 -0.290304,20.773971 -0.367336,42.038391 l -0.140072,38.66261 3.386922,-0.1482 c 1.862806,-0.0815 5.88773,-0.21777 8.944285,-0.30269 z M 190.68498,130.12837 V 92.69511 l -2.10287,-2.89339 c -2.63996,-3.632377 -4.00754,-5.189327 -9.08109,-10.338408 -6.44202,-6.537915 -13.78397,-12.864942 -20.206,-17.41273 -6.05138,-4.285341 -10.41004,-6.836725 -11.67945,-6.836725 -1.48658,0 -10.95455,6.314638 -19.09977,12.738535 -8.43163,6.649775 -17.3355,15.49251 -21.24176,21.09593 -0.5828,0.836002 -1.68563,2.703641 -2.45074,4.150324 l -1.39111,2.630329 0.12894,34.765995 c 0.0709,19.12132 0.20202,35.149 0.29132,35.61711 l 0.16237,0.85109 1.86861,0.16701 c 2.16604,0.19347 15.80005,-0.1775 16.07407,-0.43732 0.10138,-0.096 0.31928,-5.51323 0.48424,-12.03802 0.33591,-13.28579 0.63364,-18.11155 1.31085,-21.24596 1.3182,-6.10131 5.5729,-10.5953 16.31787,-17.23564 3.29955,-2.03911 7.10249,-4.07463 7.61259,-4.07463 0.4558,0 10.51391,5.79681 13.18099,7.59662 2.73335,1.84453 5.74085,4.473 7.25965,6.34466 1.34448,1.6569 3.06263,4.69587 3.70848,6.55929 0.7651,2.20763 1.22688,8.86053 1.76863,25.48094 0.15368,4.71397 0.33156,8.62299 0.39542,8.68667 0.0639,0.0636 3.6525,0.22825 7.9749,0.36566 4.32239,0.13747 8.05128,0.26771 8.2864,0.28955 0.40551,0.0377 0.42748,-1.8821 0.42748,-37.39351 z m -49.28043,36.42397 c 0.90851,-0.16988 1.72331,-0.37678 1.81061,-0.45958 0.31163,-0.29551 0.53383,-4.29838 0.5614,-10.11339 0.0279,-5.90029 0.18446,-7.67362 0.72229,-8.18412 0.36602,-0.34743 4.33496,-0.49765 5.16418,-0.19537 l 0.62774,0.22873 0.29888,8.30291 c 0.1644,4.56661 0.35876,8.6938 0.43192,9.17158 l 0.13304,0.86867 h 6.32979 c 3.4814,0 6.33416,-0.026 6.3395,-0.0579 0.006,-0.0319 0.11127,-4.7972 0.23545,-10.58967 0.3021,-14.09389 0.0372,-17.83564 -1.46526,-20.6882 -1.37081,-2.60281 -6.97281,-7.71281 -11.68507,-10.65884 -1.29925,-0.81227 -2.59252,-1.59357 -2.87395,-1.73626 -0.4471,-0.22658 -0.98658,0.0362 -4.27489,2.08319 -5.10772,3.17959 -8.41621,6.26297 -10.04719,9.3636 -1.75135,3.32947 -1.77842,3.61605 -1.76924,18.73287 0.006,10.04166 0.0813,13.36487 0.31362,13.87648 l 0.30559,0.6727 3.59486,-0.15415 c 1.97716,-0.0848 4.33821,-0.29323 5.24674,-0.4632 z"
         id="path15" />
      <text
         xml:space="preserve"
         style="font-size:147.091px;text-align:start;writing-mode:lr-tb;direction:ltr;text-anchor:start;fill:#d4af37;fill-opacity:1;stroke:#d4af37;stroke-width:1.89118;stroke-opacity:1"
         x="252.87317"
         y="151.19298"
         id="text1"><tspan
           sodipodi:role="line"
           id="tspan1"
           style="font-style:normal;font-variant:normal;font-weight:normal;font-stretch:normal;font-size:147.091px;font-family:Lato;-inkscape-font-specification:Lato;fill:#d4af37;fill-opacity:1;stroke:#d4af37;stroke-width:1.89118;stroke-opacity:1"
           x="252.87317"
           y="151.19298">Iqamah</tspan></text>
    </g>
  </g>
</svg>
