<?xml version="1.0" encoding="UTF-8" standalone="no"?>
<!-- Created with Inkscape (http://www.inkscape.org/) -->

<svg
   version="1.1"
   id="svg1"
   width="512"
   height="512"
   viewBox="0 0 512 512"
   sodipodi:docname="iqamah-icon-transparent.svg"
   inkscape:version="1.4.2 (f4327f4, 2025-05-13)"
   inkscape:export-filename="iqamah-icon-transparent.png"
   inkscape:export-xdpi="96"
   inkscape:export-ydpi="96"
   xmlns:inkscape="http://www.inkscape.org/namespaces/inkscape"
   xmlns:sodipodi="http://sodipodi.sourceforge.net/DTD/sodipodi-0.dtd"
   xmlns="http://www.w3.org/2000/svg"
   xmlns:svg="http://www.w3.org/2000/svg">
  <defs
     id="defs1" />
  <sodipodi:namedview
     id="namedview1"
     pagecolor="#050c18"
     bordercolor="#000000"
     borderopacity="0.25"
     inkscape:showpageshadow="2"
     inkscape:pageopacity="0.0"
     inkscape:pagecheckerboard="0"
     inkscape:deskcolor="#d1d1d1"
     inkscape:zoom="1.6117063"
     inkscape:cx="293.78802"
     inkscape:cy="266.48776"
     inkscape:window-width="2560"
     inkscape:window-height="1369"
     inkscape:window-x="-8"
     inkscape:window-y="-8"
     inkscape:window-maximized="1"
     inkscape:current-layer="g1" />
  <g
     inkscape:groupmode="layer"
     inkscape:label="Image"
     id="g1"
     transform="matrix(0.83272319,0,0,0.78965243,12.558495,14.194197)">
    <path
       style="fill:#d4af37;fill-opacity:1;stroke-width:0.465345"
       d="m 147.88412,467.85086 c -3.38136,-1.27423 -7.12038,-4.75459 -7.87669,-7.3318 -1.10844,-3.77712 -1.35509,-22.2635 -1.36562,-102.35652 l -0.0105,-84.47088 2.83793,-5.10809 c 6.14709,-11.06439 14.97301,-22.1503 32.92198,-41.3521 20.77992,-22.23035 43.94148,-41.82296 69.40814,-58.71307 16.19557,-10.74131 33.4044,-20.19287 42.0238,-23.08062 8.05652,-2.69919 13.22885,-1.51451 26.44369,6.05665 18.35595,10.51667 35.52845,22.17893 55.35545,37.59319 9.33585,7.25804 14.92585,12.39458 29.34055,26.96043 19.02522,19.22474 28.86327,30.12852 37.14967,41.17403 5.48125,7.3063 7.97345,11.86545 9.2766,16.97019 2.6504,10.38243 2.90025,21.24082 2.5339,110.12203 l -0.31395,76.1657 -2.9447,2.16214 c -4.6333,3.40202 -7.02005,4.05369 -15.7516,4.30088 -4.09505,0.11595 -14.4606,-0.12405 -23.0346,-0.53319 -26.93417,-1.28541 -69.43957,-1.80489 -123.08385,-1.50426 -53.48088,0.2997 -70.6981,0.67447 -100.74727,2.19297 -28.46379,1.43839 -30.23196,1.47975 -32.16231,0.75232 z m 30.88262,-19.69716 c 5.82262,-0.17067 10.60696,-0.33082 10.63183,-0.35589 0.0249,-0.0251 0.4115,-34.17867 0.85916,-75.89688 l 0.81393,-75.85128 2.66889,-4.88613 c 7.09281,-12.98527 16.2844,-24.39211 32.4442,-40.26348 14.87641,-14.61087 27.83151,-25.16244 43.44066,-35.3812 20.34309,-13.31793 24.15624,-13.39926 43.04444,-0.91824 19.7082,13.02289 41.4958,31.11162 54.5893,45.3217 12.0665,13.09551 17.6039,20.43815 22.26605,29.52491 l 2.91,5.67175 0.31415,75.52428 c 0.17275,41.53836 0.3915,75.59267 0.48605,75.67623 0.2932,0.2592 26.00162,1.67948 30.26952,1.67226 l 4.0383,-0.007 0.38245,-2.67574 c 0.61655,-4.31298 0.3841,-137.50832 -0.258,-147.82343 -0.86205,-13.84915 -1.80605,-19.04464 -4.4885,-24.70335 -1.9537,-4.12146 -4.1009,-6.93561 -14.7347,-19.31184 -25.46372,-29.63601 -51.83727,-52.44276 -90.77142,-78.49535 -23.84805,-15.95781 -25.85916,-16.22148 -43.49034,-5.70189 -29.91376,17.84795 -53.45125,36.45416 -80.87394,63.93026 -21.35089,21.39246 -31.30395,33.76268 -35.47588,44.09133 -0.9324,2.30841 -1.24131,4.18232 -1.59014,9.64649 -0.23812,3.72984 -0.55302,41.73228 -0.69976,84.44983 l -0.26682,77.66831 6.45198,-0.29777 c 3.54859,-0.16375 11.21595,-0.43738 17.03859,-0.60805 z m 195.32871,-75.83284 v -75.19869 l -4.0059,-5.81246 c -5.02905,-7.29697 -7.63425,-10.42468 -17.2992,-20.76855 -12.27185,-13.13385 -26.25805,-25.84404 -38.4918,-34.97997 -11.5277,-8.60871 -19.8308,-13.73412 -22.24902,-13.73412 -2.83188,0 -20.86808,12.68531 -36.38448,25.59011 -16.062,13.35858 -33.0236,31.12252 -40.4649,42.37905 -1.11021,1.67941 -3.21107,5.43129 -4.66859,8.33749 l -2.65002,5.28401 0.24563,69.84052 c 0.13515,38.41229 0.38482,70.60991 0.55495,71.55026 l 0.3093,1.70971 3.55964,0.33528 c 4.12623,0.38865 30.09862,-0.35649 30.62062,-0.8785 0.1931,-0.19308 0.60821,-11.0754 0.92246,-24.1829 0.63988,-26.68947 1.20706,-36.38382 2.49712,-42.68044 2.51114,-12.25676 10.61619,-21.28461 31.08506,-34.62422 6.28554,-4.09632 13.53001,-8.18542 14.50173,-8.18542 0.86829,0 20.0287,11.64505 25.1094,15.26067 5.20695,3.7054 10.93615,8.98567 13.8294,12.7456 2.5612,3.32852 5.83425,9.43341 7.06455,13.1768 1.4575,4.43487 2.33715,17.79966 3.36915,51.18798 0.29275,9.46978 0.63165,17.32248 0.75325,17.45044 0.1215,0.12795 6.95795,0.45852 15.19195,0.73455 8.23405,0.27603 15.33745,0.53778 15.78535,0.58167 0.7725,0.0758 0.81435,-3.78088 0.81435,-75.11887 z m -93.87773,73.17121 c 1.73071,-0.34147 3.28286,-0.75694 3.44917,-0.92326 0.59364,-0.59364 1.01693,-8.63487 1.06944,-20.31653 0.0532,-11.85292 0.35141,-15.41532 1.37594,-16.44084 0.69727,-0.69796 8.25798,-0.99972 9.83762,-0.39264 l 1.19583,0.45959 0.56937,16.6795 c 0.31315,9.17373 0.68341,17.46477 0.82279,18.42455 l 0.25343,1.74504 h 12.05804 c 6.63195,0 12.0664,-0.0523 12.07655,-0.11625 0.0105,-0.064 0.212,-9.63699 0.4485,-21.27333 0.5755,-28.31282 0.0707,-35.82953 -2.79125,-41.55995 -2.61135,-5.22876 -13.283,-15.49411 -22.25972,-21.41229 -2.47503,-1.63174 -4.93868,-3.2013 -5.47478,-3.48793 -0.85172,-0.45537 -1.87941,0.0728 -8.14355,4.18488 -9.73006,6.38737 -16.03262,12.58149 -19.13961,18.81028 -3.33625,6.68847 -3.38782,7.2642 -3.37033,37.63197 0.012,20.17241 0.15468,26.84832 0.59742,27.87608 l 0.58215,1.35141 6.8481,-0.30968 c 3.76645,-0.17031 8.26416,-0.58905 9.99489,-0.93052 z"
       id="path15" />
  </g>
</svg>
